<?xml version="1.0" encoding="UTF-8"?>
<svg version="1.1" xmlns="http://www.w3.org/2000/svg" width="612" height="408">
<path d="M0 0 C2.50728735 3.52587284 3.30346662 6.55618615 3 10.8125 C2.23027026 13.65420666 1.20704419 16.10872101 0 18.8125 C-0.66 18.8125 -1.32 18.8125 -2 18.8125 C-2.36351562 19.67681641 -2.36351562 19.67681641 -2.734375 20.55859375 C-5.98691556 26.35092678 -12.78556665 31.64467441 -19 33.8125 C-21.58767145 33.66463306 -22.69285822 33.02432191 -24.8125 31.5625 C-26 29.8125 -26 29.8125 -25.8125 27.25 C-25 24.8125 -25 24.8125 -23 22.8125 C-22.071875 22.52375 -21.14375 22.235 -20.1875 21.9375 C-14.28914321 19.85572702 -10.61903277 15.73840571 -7 10.8125 C-6.13457301 8.09136497 -6.13457301 8.09136497 -6 5.8125 C-14.10899572 1.75800214 -25.60586772 6.34684044 -33.62451172 8.96923828 C-44.12265399 12.69591694 -56.02467415 17.4802671 -63.0625 26.4375 C-64.1262135 28.70668464 -64.1262135 28.70668464 -64 30.875 C-60.81777541 37.04056014 -52.82957029 39.35596343 -46.875 42.0625 C-37.71401364 46.32330733 -29.22347393 50.58902607 -22 57.8125 C-18.64255888 58.05627883 -18.64255888 58.05627883 -14.875 57.9375 C-13.59367187 57.91945312 -12.31234375 57.90140625 -10.9921875 57.8828125 C-10.00476563 57.85960937 -9.01734375 57.83640625 -8 57.8125 C-7.70222656 56.87535156 -7.40445313 55.93820313 -7.09765625 54.97265625 C-4.91710178 48.69483218 -1.0404297 45.69958332 4.68359375 42.69140625 C8.10552332 41.393035 10.54467878 41.77590363 14 42.8125 C17 44.8125 17 44.8125 17.8125 47 C18.07207413 50.89361192 17.55678275 53.20076401 16 56.8125 C11.65125324 61.55126889 6.2916591 66.62617967 -0.3125 67 C-1.199375 66.938125 -2.08625 66.87625 -3 66.8125 C-2.34 68.4625 -1.68 70.1125 -1 71.8125 C3.70376752 70.58952045 7.65332624 69.03413325 12 66.8125 C14.375 66.125 14.375 66.125 16 65.8125 C16 65.1525 16 64.4925 16 63.8125 C16.721875 63.131875 17.44375 62.45125 18.1875 61.75 C21.75111 58.36966137 23.78329222 54.14215477 26 49.8125 C26.66 49.8125 27.32 49.8125 28 49.8125 C28.185625 49.235 28.37125 48.6575 28.5625 48.0625 C30.65137604 44.7929549 33.46810716 43.20104658 37 41.8125 C40.68444421 41.37536255 42.91518648 41.19260656 46.16015625 43.046875 C48.46422319 45.25799656 48.65082113 46.34115296 48.75 49.5 C48.57105028 53.87787706 47.5130855 56.02613274 44.5 59.1875 C40.05947459 63.08380471 35.10414406 66.8125 29 66.8125 C29 68.1325 29 69.4525 29 70.8125 C36.70925144 69.8790207 41.90033556 67.57182849 48 62.8125 C48.64066406 62.32394531 49.28132812 61.83539063 49.94140625 61.33203125 C52.97498283 58.88813478 55.33686861 56.49469709 57.5 53.25 C60.6016798 48.61802122 64.67208132 45.58847289 70 43.8125 C71.89470816 43.7439505 73.7916834 43.72769628 75.6875 43.75 C76.68136719 43.75902344 77.67523438 43.76804688 78.69921875 43.77734375 C79.83810547 43.79474609 79.83810547 43.79474609 81 43.8125 C85.80677972 34.9352983 89.10864186 25.65077592 92.21484375 16.0625 C92.82005859 14.2990625 92.82005859 14.2990625 93.4375 12.5 C93.96150391 10.89705078 93.96150391 10.89705078 94.49609375 9.26171875 C96 6.8125 96 6.8125 99.015625 5.91796875 C102.16395389 5.80670582 103.56133159 5.82543685 106 7.8125 C107.35737841 11.22846179 106.98075172 13.34174671 105.59375 16.60546875 C104.90748075 18.07580524 104.20877794 19.54038062 103.5 21 C102.75314292 22.60781503 102.00974529 24.21724082 101.26953125 25.828125 C100.89006348 26.65119141 100.5105957 27.47425781 100.11962891 28.32226562 C93.77305975 42.43805399 88.78766108 56.24940352 88 71.8125 C91.45411499 71.11170746 91.45411499 71.11170746 95 69.8125 C96.18330183 67.94605094 96.18330183 67.94605094 97 65.8125 C99.625 63.5625 99.625 63.5625 102 61.8125 C102.87794585 64.24039964 103.17648254 65.38221876 102.1796875 67.8125 C97.12348401 75.5633269 97.12348401 75.5633269 93 77.8125 C89.83805174 78.47027756 87.15237105 78.54919541 84 77.8125 C79.90143362 74.48241482 78.8033274 72.13508329 78.1875 66.9375 C78.10361738 65.56363867 78.03363577 64.18850868 78 62.8125 C77.29037109 63.80830078 77.29037109 63.80830078 76.56640625 64.82421875 C72.24610369 70.59304381 68.11029199 75.65307799 61 77.8125 C57.0356365 77.22518689 54.44180971 76.02540752 52 72.8125 C51.67 71.8225 51.34 70.8325 51 69.8125 C50.32453125 70.22242188 49.6490625 70.63234375 48.953125 71.0546875 C48.06109375 71.59351563 47.1690625 72.13234375 46.25 72.6875 C45.36828125 73.22117187 44.4865625 73.75484375 43.578125 74.3046875 C42.72734375 74.80226563 41.8765625 75.29984375 41 75.8125 C40.01580078 76.39257812 40.01580078 76.39257812 39.01171875 76.984375 C34.88562151 78.68288493 30.36270454 78.349747 26 77.8125 C22.54341521 75.76676614 21.2214641 74.14469615 19 70.8125 C18.25234375 71.30621094 17.5046875 71.79992187 16.734375 72.30859375 C15.74953125 72.94925781 14.7646875 73.58992188 13.75 74.25 C12.77546875 74.88808594 11.8009375 75.52617187 10.796875 76.18359375 C6.13639929 78.89786522 2.38289982 79.09581052 -3 78.8125 C-7.03904857 77.7109413 -8.8501074 76.38952929 -11 72.8125 C-11.29296875 70.015625 -11.29296875 70.015625 -11.1875 67.0625 C-11.14689453 65.58523437 -11.14689453 65.58523437 -11.10546875 64.078125 C-11.07066406 63.33046875 -11.03585938 62.5828125 -11 61.8125 C-14.465 62.8025 -14.465 62.8025 -18 63.8125 C-17.95359375 64.52535156 -17.9071875 65.23820312 -17.859375 65.97265625 C-17.5733324 73.56300089 -18.66737962 78.06044227 -23.70703125 83.734375 C-28.31131488 88.27703342 -33.40590972 91.34237867 -39.125 94.25 C-39.79370117 94.59216553 -40.46240234 94.93433105 -41.15136719 95.28686523 C-46.36476221 97.81069829 -51.16600186 98.8125 -57 98.8125 C-57 99.4725 -57 100.1325 -57 100.8125 C-56.45811035 100.70180176 -55.9162207 100.59110352 -55.35791016 100.47705078 C-45.1015592 98.4015921 -34.90385736 96.4813894 -24.47900391 95.49658203 C-20.24353372 95.09227312 -16.06550887 94.52361286 -11.86328125 93.8515625 C-4.82534637 92.74715436 2.2217421 91.98695877 9.3125 91.3125 C9.97307404 91.24902374 10.63364807 91.18554749 11.3142395 91.12014771 C24.49163334 89.8617349 37.68306839 88.95871396 50.90057373 88.23365784 C55.52151967 87.97501283 60.13598512 87.65982783 64.75170898 87.32006836 C85.37116294 85.84689496 105.90966445 85.44964311 126.57845306 85.49444199 C129.23274293 85.50009638 131.88702636 85.50290917 134.5413208 85.50552368 C172.61309758 85.55990902 210.39594352 87.02852436 248.25 91.3125 C249.15345154 91.41396332 250.05690308 91.51542664 250.98773193 91.6199646 C267.96586615 93.56867131 267.96586615 93.56867131 276 96.8125 C276 97.4725 276 98.1325 276 98.8125 C265.88321385 98.43344729 255.89606041 97.61609818 245.84765625 96.375 C233.18532166 94.87320405 220.5432472 93.82344558 207.8125 93.125 C206.68424805 93.06246033 205.55599609 92.99992065 204.39355469 92.93548584 C158.78858129 90.50141584 112.7852224 90.59749129 67.1875 93.125 C66.11806152 93.18367249 65.04862305 93.24234497 63.94677734 93.30279541 C50.19975633 94.08714948 36.56031262 95.44759083 22.89306641 97.11181641 C17.33205254 97.78690393 11.76439296 98.34958504 6.1875 98.875 C-0.13837613 99.4871216 -6.38657904 100.27901495 -12.66015625 101.3125 C-17.4928133 102.0359855 -22.34583184 102.5404003 -27.20751953 103.02734375 C-31.38439145 103.46189853 -35.49918998 104.05173535 -39.63671875 104.7734375 C-46.64380144 105.97176147 -53.68042645 106.71430772 -60.75 107.4375 C-62.67199219 107.63859375 -62.67199219 107.63859375 -64.6328125 107.84375 C-67.75488373 108.16993655 -70.87725967 108.49279392 -74 108.8125 C-73.979375 109.90433594 -73.95875 110.99617188 -73.9375 112.12109375 C-74.01019399 116.41458258 -74.5878203 118.26961106 -77 121.8125 C-82.55974567 126.67869866 -86.17095008 128.94807892 -93.625 128.875 C-94.81351563 128.86597656 -96.00203125 128.85695313 -97.2265625 128.84765625 C-98.14179687 128.83605469 -99.05703125 128.82445312 -100 128.8125 C-99.58621094 128.01585937 -99.58621094 128.01585937 -99.1640625 127.203125 C-97.78291096 124.36666613 -96.57935359 121.47830343 -95.375 118.5625 C-94.92898437 117.48484375 -94.48296875 116.4071875 -94.0234375 115.296875 C-93.68570313 114.47703125 -93.34796875 113.6571875 -93 112.8125 C-92.34 112.8125 -91.68 112.8125 -91 112.8125 C-90.34 111.4925 -89.68 110.1725 -89 108.8125 C-89.69867188 108.53535156 -90.39734375 108.25820312 -91.1171875 107.97265625 C-92.48230469 107.42931641 -92.48230469 107.42931641 -93.875 106.875 C-95.23238281 106.33552734 -95.23238281 106.33552734 -96.6171875 105.78515625 C-99 104.8125 -99 104.8125 -101 103.8125 C-101 103.1525 -101 102.4925 -101 101.8125 C-101.99 101.4825 -102.98 101.1525 -104 100.8125 C-105.421875 98.6328125 -105.421875 98.6328125 -106.75 95.9375 C-107.19859375 95.05320312 -107.6471875 94.16890625 -108.109375 93.2578125 C-109 90.8125 -109 90.8125 -108 87.8125 C-104.95482972 88.21048265 -101.91530882 88.63008071 -98.875 89.0625 C-98.0190625 89.17207031 -97.163125 89.28164062 -96.28125 89.39453125 C-89.84262654 90.33556083 -85.72398017 91.90065913 -81.1875 96.75 C-80 98.8125 -80 98.8125 -79 103.8125 C-73.06 103.3175 -73.06 103.3175 -67 102.8125 C-67.33 101.8225 -67.66 100.8325 -68 99.8125 C-69.76855511 98.90152006 -69.76855511 98.90152006 -71.875 98.3125 C-75.01506788 97.33919483 -76.92261937 96.41079481 -79 93.8125 C-80.11464207 89.18244834 -80.5043485 85.95011925 -78 81.8125 C-76.03285811 79.89579765 -74.2168797 78.39662659 -72 76.8125 C-71.26007813 76.26464844 -70.52015625 75.71679688 -69.7578125 75.15234375 C-62.27729595 69.97964614 -54.39039388 67.19674961 -45.81616211 64.42675781 C-44.25434571 63.89852417 -42.72243736 63.28330041 -41.19921875 62.65234375 C-38.39237887 61.58045996 -35.97659232 61.67405385 -33 61.8125 C-34.37543445 57.68619664 -36.31643774 57.29052322 -40.125 55.3125 C-40.71885498 55.00207764 -41.31270996 54.69165527 -41.92456055 54.37182617 C-45.88623591 52.3212617 -49.87881747 50.50945751 -54 48.8125 C-56.6854714 47.51571343 -59.34268109 46.16581499 -62 44.8125 C-62.66257813 44.52503906 -63.32515625 44.23757812 -64.0078125 43.94140625 C-66.43836017 42.5640959 -67.88506328 40.93945352 -69.6875 38.8125 C-70.28949219 38.11125 -70.89148438 37.41 -71.51171875 36.6875 C-74.22246681 33.27238433 -74.47575253 30.58612126 -74.38671875 26.3125 C-73.45500505 20.28930029 -69.87949368 16.29714207 -65.2109375 12.609375 C-59.72479197 8.85935147 -54.08164078 5.49378451 -48 2.8125 C-47.32582031 2.48765625 -46.65164062 2.1628125 -45.95703125 1.828125 C-40.25072938 -0.72546964 -34.40018447 -2.13095471 -28.3125 -3.4375 C-27.10049927 -3.70046875 -27.10049927 -3.70046875 -25.86401367 -3.96875 C-16.36148699 -5.90616783 -8.06105155 -5.87785009 0 0 Z M6.4921875 52.125 C5.95851563 52.681875 5.42484375 53.23875 4.875 53.8125 C4.33617187 54.369375 3.79734375 54.92625 3.2421875 55.5 C2.83226562 55.933125 2.42234375 56.36625 2 56.8125 C2.33 57.4725 2.66 58.1325 3 58.8125 C4.1725131 57.86132866 5.33787015 56.90132991 6.5 55.9375 C7.1496875 55.40382813 7.799375 54.87015625 8.46875 54.3203125 C9.22671875 53.57394531 9.22671875 53.57394531 10 52.8125 C10 52.1525 10 51.4925 10 50.8125 C7.91824988 50.59364478 7.91824988 50.59364478 6.4921875 52.125 Z M40 49.8125 C38.8274869 50.76367134 37.66212985 51.72367009 36.5 52.6875 C35.52546875 53.48800781 35.52546875 53.48800781 34.53125 54.3046875 C34.0259375 54.80226563 33.520625 55.29984375 33 55.8125 C33 56.4725 33 57.1325 33 57.8125 C35.95508863 58.15620205 35.95508863 58.15620205 37.38671875 56.5 C37.81597656 55.943125 38.24523437 55.38625 38.6875 54.8125 C39.8321875 53.3275 39.8321875 53.3275 41 51.8125 C40.67 51.1525 40.34 50.4925 40 49.8125 Z M68 54.8125 C63.75645293 59.05604707 62.02106752 64.27606504 60 69.8125 C62.88164201 68.47663946 65.25276708 66.97612669 67.6875 64.9375 C68.59048828 64.19886719 68.59048828 64.19886719 69.51171875 63.4453125 C71.20487499 61.58772902 71.60184921 60.26510887 72 57.8125 C72.66 57.8125 73.32 57.8125 74 57.8125 C76.31592022 54.59135843 76.31592022 54.59135843 77 50.8125 C72.90367503 50.8125 71.23932119 52.36648196 68 54.8125 Z M-54 74.8125 C-55.13308594 75.37904297 -55.13308594 75.37904297 -56.2890625 75.95703125 C-65.31828451 80.62328053 -65.31828451 80.62328053 -71.0625 88.5625 C-71.2521778 91.01845543 -71.2521778 91.01845543 -69 92.8125 C-55.45734887 94.37511359 -43.65595984 87.58158022 -33.2421875 79.734375 C-30.89173975 77.7197055 -30.32340469 76.83094376 -30 73.8125 C-29.34 73.8125 -28.68 73.8125 -28 73.8125 C-26.5216774 70.85585481 -26.93967217 68.07020263 -27 64.8125 C-35.06604022 64.8125 -46.84771256 71.23635628 -54 74.8125 Z " fill="#DCDCDC" transform="translate(215,130.1875)"/>
<path d="M0 0 C0.495 2.475 0.495 2.475 1 5 C-0.97204579 6.0564531 -2.6892172 6.93912502 -4.89453125 7.37109375 C-11.57882426 9.36770075 -16.36101617 16.42780602 -20 22 C-19.46632813 21.59007812 -18.93265625 21.18015625 -18.3828125 20.7578125 C-8.85236847 13.86555367 1.14093138 12.91599054 12.625 14.5 C13.40875 14.665 14.1925 14.83 15 15 C15 15.66 15 16.32 15 17 C13.83370548 18.06860995 12.61494068 19.0802998 11.375 20.0625 C8.24840784 22.69832196 5.99671518 25.23153551 3.8125 28.6875 C-0.83517134 35.98744245 -5.83428137 37.90703911 -14 40 C-13.360625 40.28875 -12.72125 40.5775 -12.0625 40.875 C-10 42 -10 42 -9 44 C-8.43290476 48.11144049 -8.12234261 50.59473354 -10.3515625 54.1640625 C-14.96867026 59.59475753 -20.14117731 63.77551697 -27 66 C-27.99 66 -28.98 66 -30 66 C-29.67 67.32 -29.34 68.64 -29 70 C-24.87765597 69.52434492 -21.65066361 68.95571265 -18 67 C-17.01 67 -16.02 67 -15 67 C-15 66.34 -15 65.68 -15 65 C-9.58823529 61 -9.58823529 61 -7 61 C-7 60.34 -7 59.68 -7 59 C-5.68 58.67 -4.36 58.34 -3 58 C-3.12375 56.989375 -3.2475 55.97875 -3.375 54.9375 C-2.9491454 50.46602668 -2.13016813 48.82401262 0.89453125 45.6484375 C5.47019036 42.06601052 11.40192058 39.07343019 17.296875 38.953125 C19.1875 39.25 19.1875 39.25 22 40 C22.33 39.67 22.66 39.34 23 39 C25.18292774 38.76518307 27.37203174 38.58636677 29.5625 38.4375 C30.76003906 38.35371094 31.95757812 38.26992187 33.19140625 38.18359375 C34.11824219 38.12300781 35.04507813 38.06242187 36 38 C36.12761719 37.08734375 36.25523437 36.1746875 36.38671875 35.234375 C36.91560581 32.44508526 37.46135017 30.68314631 38.8125 28.25 C40.90305594 24.31215281 42.50736069 20.27373963 44.0703125 16.1015625 C45 14 45 14 47 12 C49.875 11.625 49.875 11.625 53 12 C55.375 14 55.375 14 57 16 C54.98497783 21.26769756 52.94621761 26.17891664 50 31 C49.01 33.97 49.01 33.97 48 37 C61.86 37.495 61.86 37.495 76 38 C76.33 38.66 76.66 39.32 77 40 C70.40370745 41.40576727 63.78332059 42.55984571 57.125 43.625 C56.29250732 43.76010986 55.46001465 43.89521973 54.60229492 44.03442383 C53.41083862 44.22234497 53.41083862 44.22234497 52.1953125 44.4140625 C51.48391113 44.5270166 50.77250977 44.6399707 50.03955078 44.75634766 C48 45 48 45 44 45 C43.81824219 45.6290625 43.63648438 46.258125 43.44921875 46.90625 C42.24666176 51.00111073 41.03529045 55.0035113 39.375 58.9375 C37.47037048 63.79380668 37.27537318 68.83437899 37 74 C38.98 73.67 40.96 73.34 43 73 C41.125 77.875 41.125 77.875 40 79 C32.96395469 79.69207003 32.96395469 79.69207003 29.5625 77.25 C27.2034129 72.34309884 27.17178758 67.38554067 27 62 C24.69 63.32 22.38 64.64 20 66 C20.33 66.33 20.66 66.66 21 67 C21.70136986 74.01369863 21.70136986 74.01369863 19 77.8125 C11.53782381 83.25367014 4.07404265 83.98966188 -5 83 C-7 81 -7 81 -7.625 78.3125 C-6.65562145 73.17479369 -3.15533648 70.91103979 1 68 C4 66.5625 4 66.5625 6 66 C4.35 64.35 2.7 62.7 1 61 C0.071875 61.825 -0.85625 62.65 -1.8125 63.5 C-4.97768386 66.20198622 -8.23096336 68.7558988 -11.5625 71.25 C-12.45066406 71.91515625 -13.33882813 72.5803125 -14.25390625 73.265625 C-19.48660263 76.57048587 -24.88088625 77.98734704 -31 77 C-34.37783054 75.31108473 -36.36362481 73.96839703 -38.4375 70.8125 C-39.93728293 63.31358535 -37.65430176 57.48343861 -34 51 C-33.34 51 -32.68 51 -32 51 C-31.7525 50.4225 -31.505 49.845 -31.25 49.25 C-29.06811176 45.32260116 -26.96599713 43.37153736 -22.75 41.75 C-21.8425 41.5025 -20.935 41.255 -20 41 C-21.3089572 37.87802522 -21.3089572 37.87802522 -24 36 C-24.625 32.9375 -24.625 32.9375 -25 30 C-31.88309586 38.39529116 -36.83674954 48.00130283 -42 57.5 C-42.47566406 58.37011719 -42.95132812 59.24023438 -43.44140625 60.13671875 C-44.27425205 61.66673372 -45.10501281 63.19794942 -45.92138672 64.73681641 C-53.52781422 79.04477536 -53.52781422 79.04477536 -60 83 C-64.03188903 83.24191334 -65.50154526 82.38253503 -68.6875 79.9375 C-74.42596828 72.64809434 -74.5123756 65.25015024 -74.4375 56.3125 C-74.43427734 55.10819336 -74.43105469 53.90388672 -74.42773438 52.66308594 C-74.22227718 38.93641975 -72.23958599 25.52686114 -70 12 C-67.03 12 -64.06 12 -61 12 C-59.41750851 15.16498299 -60.09585481 18.48781409 -60.3125 21.9375 C-60.35882568 22.73945801 -60.40515137 23.54141602 -60.45288086 24.36767578 C-60.80780203 30.06302556 -61.39553904 35.70909835 -62.0625 41.375 C-63.21562767 51.25776951 -63.18846917 61.06348646 -63 71 C-59.94412847 68.18071207 -57.97985302 65.49318045 -56.0625 61.8125 C-55.55589844 60.8534375 -55.04929687 59.894375 -54.52734375 58.90625 C-54.02332031 57.9471875 -53.51929688 56.988125 -53 56 C-52.0468778 54.26795548 -51.08904212 52.53849042 -50.125 50.8125 C-49.71507812 50.07644531 -49.30515625 49.34039062 -48.8828125 48.58203125 C-48.44582031 47.79892578 -48.44582031 47.79892578 -48 47 C-47.34 47 -46.68 47 -46 47 C-45.84917969 45.92298828 -45.84917969 45.92298828 -45.6953125 44.82421875 C-44.90910078 41.63078577 -43.68126797 39.55430137 -41.875 36.8125 C-41.24078125 35.84957031 -40.6065625 34.88664062 -39.953125 33.89453125 C-39.30859375 32.93933594 -38.6640625 31.98414063 -38 31 C-37.43796875 30.15824219 -36.8759375 29.31648438 -36.296875 28.44921875 C-14.26456929 -3.82707957 -14.26456929 -3.82707957 0 0 Z M-24 26 C-24.33 26.66 -24.66 27.32 -25 28 C-24.34 28 -23.68 28 -23 28 C-23.33 27.34 -23.66 26.68 -24 26 Z M23 46 C23 46.66 23 47.32 23 48 C22.443125 48.02578125 21.88625 48.0515625 21.3125 48.078125 C15.31706452 48.52373169 11.23258464 50.05072502 6 53 C7.73864691 56.75389674 9.4109595 58.79763424 13 61 C17.50393949 60.6193854 21.24935176 59.2252809 25.375 57.4375 C26.43460938 56.98246094 27.49421875 56.52742188 28.5859375 56.05859375 C29.38257813 55.70925781 30.17921875 55.35992187 31 55 C31.33 52.36 31.66 49.72 32 47 C29.03 46.67 26.06 46.34 23 46 Z M-19.9453125 49.75 C-21.02425781 50.86375 -21.02425781 50.86375 -22.125 52 C-22.84945312 52.7425 -23.57390625 53.485 -24.3203125 54.25 C-24.87460937 54.8275 -25.42890625 55.405 -26 56 C-25.67 56.66 -25.34 57.32 -25 58 C-21.31003189 55.70401984 -18.26324354 53.77207256 -16 50 C-16 49.34 -16 48.68 -16 48 C-18.18829043 47.77706675 -18.18829043 47.77706675 -19.9453125 49.75 Z M12 69 C9.36 70.65 6.72 72.3 4 74 C7.89273292 75.44377428 7.89273292 75.44377428 10.75 73.5625 C11.4925 73.046875 12.235 72.53125 13 72 C12.67 71.01 12.34 70.02 12 69 Z " fill="#DBDBDB" transform="translate(399,129)"/>
<path d="M0 0 C2.65428987 0.00565439 5.30857329 0.00846718 7.96286774 0.0110817 C46.03464452 0.06546703 83.81749045 1.53408238 121.67154694 5.81805801 C122.57499847 5.91952133 123.47845001 6.02098465 124.40927887 6.12552261 C141.38741308 8.07422932 141.38741308 8.07422932 149.42154694 11.31805801 C149.42154694 11.97805801 149.42154694 12.63805801 149.42154694 13.31805801 C139.30476079 12.9390053 129.31760735 12.12165619 119.26920319 10.88055801 C106.60686859 9.37876207 93.96479413 8.3290036 81.23404694 7.63055801 C79.54166901 7.5367485 79.54166901 7.5367485 77.81510162 7.44104385 C32.21012823 5.00697385 -13.79323066 5.1030493 -59.39095306 7.63055801 C-60.99511078 7.71856674 -60.99511078 7.71856674 -62.63167572 7.80835342 C-76.37869673 8.5927075 -90.01814044 9.95314884 -103.68538666 11.61737442 C-109.24640053 12.29246195 -114.8140601 12.85514305 -120.39095306 13.38055801 C-126.7168292 13.99267961 -132.96503211 14.78457297 -139.23860931 15.81805801 C-144.07126636 16.54154351 -148.92428491 17.04595831 -153.7859726 17.53290176 C-157.96284451 17.96745654 -162.07764305 18.55729337 -166.21517181 19.27899551 C-173.2222545 20.47731948 -180.25887951 21.21986573 -187.32845306 21.94305801 C-189.25044525 22.14415176 -189.25044525 22.14415176 -191.21126556 22.34930801 C-194.33333679 22.67549456 -197.45571274 22.99835194 -200.57845306 23.31805801 C-200.55782806 24.40989395 -200.53720306 25.50172989 -200.51595306 26.62665176 C-200.58864705 30.9201406 -201.16627336 32.77516908 -203.57845306 36.31805801 C-209.13819873 41.18425668 -212.74940314 43.45363693 -220.20345306 43.38055801 C-221.39196869 43.37153458 -222.58048431 43.36251114 -223.80501556 43.35321426 C-224.72024994 43.3416127 -225.63548431 43.33001114 -226.57845306 43.31805801 C-226.30259369 42.78696426 -226.02673431 42.25587051 -225.74251556 41.70868301 C-224.36136402 38.87222414 -223.15780666 35.98386145 -221.95345306 33.06805801 C-221.50743744 31.99040176 -221.06142181 30.91274551 -220.60189056 29.80243301 C-220.095289 28.57266739 -220.095289 28.57266739 -219.57845306 27.31805801 C-218.91845306 27.31805801 -218.25845306 27.31805801 -217.57845306 27.31805801 C-216.91845306 25.99805801 -216.25845306 24.67805801 -215.57845306 23.31805801 C-216.62646088 22.90233536 -216.62646088 22.90233536 -217.69564056 22.47821426 C-218.60571869 22.1159877 -219.51579681 21.75376114 -220.45345306 21.38055801 C-221.35837494 21.02090958 -222.26329681 20.66126114 -223.19564056 20.29071426 C-225.57845306 19.31805801 -225.57845306 19.31805801 -227.57845306 18.31805801 C-227.57845306 17.65805801 -227.57845306 16.99805801 -227.57845306 16.31805801 C-228.56845306 15.98805801 -229.55845306 15.65805801 -230.57845306 15.31805801 C-232.00032806 13.13837051 -232.00032806 13.13837051 -233.32845306 10.44305801 C-233.77704681 9.55876114 -234.22564056 8.67446426 -234.68782806 7.76337051 C-235.57845306 5.31805801 -235.57845306 5.31805801 -234.57845306 2.31805801 C-231.53328279 2.71604066 -228.49376189 3.13563872 -225.45345306 3.56805801 C-224.59751556 3.67762833 -223.74157806 3.78719864 -222.85970306 3.90008926 C-216.42107961 4.84111885 -212.30243323 6.40621714 -207.76595306 11.25555801 C-206.41417357 13.60338556 -206.05435217 15.66786758 -205.57845306 18.31805801 C-203.803414 18.10149551 -203.803414 18.10149551 -201.99251556 17.88055801 C-193.81381796 16.91032131 -185.83002598 16.05187824 -177.57845306 16.31805801 C-177.57845306 15.65805801 -177.57845306 14.99805801 -177.57845306 14.31805801 C-168.86321227 12.3899074 -160.24681754 10.91379903 -151.36214447 10.0529213 C-147.01881552 9.6245354 -142.72865058 9.04253046 -138.41829681 8.35321426 C-131.38826175 7.25025408 -124.34872036 6.49175673 -117.26595306 5.81805801 C-116.60537903 5.75458176 -115.94480499 5.6911055 -115.26421356 5.62570572 C-102.08681972 4.36729291 -88.89538467 3.46427197 -75.67787933 2.73921585 C-71.05693339 2.48057085 -66.44246794 2.16538585 -61.82674408 1.82562637 C-41.20729012 0.35245298 -20.66878861 -0.04479888 0 0 Z " fill="#D4D4D4" transform="translate(341.57845306396484,215.68194198608398)"/>
<path d="M0 0 C0.70658312 -0.00532084 1.41316624 -0.01064169 2.14116096 -0.01612377 C4.49368215 -0.02847231 6.84503444 -0.01179379 9.19750977 0.00561523 C10.86319656 0.00422984 12.5288827 0.00140286 14.19456482 -0.0027771 C18.66569088 -0.00755186 23.13625455 0.01538246 27.60726166 0.04632187 C30.38972655 0.0642142 33.1721451 0.07551452 35.95465088 0.08486938 C74.5334932 0.2244023 112.84315862 1.6606725 151.20141602 6.00170898 C152.10486755 6.1031723 153.00831909 6.20463562 153.93914795 6.30917358 C170.91728216 8.25788029 170.91728216 8.25788029 178.95141602 11.50170898 C178.95141602 12.16170898 178.95141602 12.82170898 178.95141602 13.50170898 C168.81333879 13.12185855 158.80284323 12.30308436 148.73266602 11.06420898 C136.44408017 9.61124066 124.1800027 8.51822089 111.82641602 7.81420898 C110.74383514 7.7506723 109.66125427 7.68713562 108.54586792 7.62167358 C67.09565493 5.29228325 25.44742691 6.24587947 -16.04858398 6.50170898 C-16.04858398 6.17170898 -16.04858398 5.84170898 -16.04858398 5.50170898 C-15.30608398 5.41920898 -14.56358398 5.33670898 -13.79858398 5.25170898 C-10.93090839 4.74556094 -10.93090839 4.74556094 -9.31724548 2.4861908 C-6.17485226 -0.26257635 -4.13736794 0.00054125 0 0 Z " fill="#D5D5D5" transform="translate(312.048583984375,215.498291015625)"/>
<path d="M0 0 C3.21199566 0.39102556 6.4183615 0.81739369 9.625 1.25 C10.52863281 1.35957031 11.43226562 1.46914062 12.36328125 1.58203125 C18.98304336 2.50010045 23.15364946 3.95734942 27.8125 8.9375 C29 11 29 11 29.5 13.625 C29.78722409 16.36365337 29.78722409 16.36365337 33 18 C32.34 19.98 31.68 21.96 31 24 C31.99 23.34 32.98 22.68 34 22 C34.11828016 31.49620746 34.11828016 31.49620746 31.515625 34.99609375 C29.73594591 36.52098972 28.01412419 37.80320157 26 39 C25.40316406 39.37769531 24.80632812 39.75539063 24.19140625 40.14453125 C21.1498678 41.33186979 18.50089147 41.19001783 15.25 41.125 C14.07953125 41.10695313 12.9090625 41.08890625 11.703125 41.0703125 C10.81109375 41.04710937 9.9190625 41.02390625 9 41 C9.27585937 40.46890625 9.55171875 39.9378125 9.8359375 39.390625 C11.21708904 36.55416613 12.42064641 33.66580343 13.625 30.75 C14.07101563 29.67234375 14.51703125 28.5946875 14.9765625 27.484375 C15.48316406 26.25460938 15.48316406 26.25460938 16 25 C16.66 25 17.32 25 18 25 C18.66 23.68 19.32 22.36 20 21 C18.95199219 20.58427734 18.95199219 20.58427734 17.8828125 20.16015625 C16.97273438 19.79792969 16.06265625 19.43570313 15.125 19.0625 C14.22007813 18.70285156 13.31515625 18.34320313 12.3828125 17.97265625 C10 17 10 17 8 16 C8 15.34 8 14.68 8 14 C7.01 13.67 6.02 13.34 5 13 C3.61328125 10.8203125 3.61328125 10.8203125 2.3125 8.125 C1.87550781 7.24070313 1.43851562 6.35640625 0.98828125 5.4453125 C0 3 0 3 0 0 Z " fill="#D9D9D9" transform="translate(106,218)"/>
<path d="M0 0 C0 0.66 0 1.32 0 2 C-1.16629452 3.06860995 -2.38505932 4.0802998 -3.625 5.0625 C-7.4865028 8.31787626 -9.96021534 11.72451336 -12.62109375 15.98046875 C-14.82860875 19.21357146 -17.53273224 21.26636612 -21 23 C-23.49253376 23.12419345 -25.94490756 23.18515513 -28.4375 23.1875 C-29.11876953 23.19974609 -29.80003906 23.21199219 -30.50195312 23.22460938 C-34.22829809 23.23555848 -35.81991571 23.12005619 -39 21 C-39.70052461 18.336937 -39.77744818 15.75964263 -40 13 C-39.34 13 -38.68 13 -38 13 C-37.93683594 12.25105469 -37.87367188 11.50210938 -37.80859375 10.73046875 C-36.4608008 6.17922589 -32.95782831 4.84460727 -29.0390625 2.515625 C-20.13157231 -1.92667088 -9.62179041 -2.02564009 0 0 Z " fill="#E8E8E8" transform="translate(414,144)"/>
<path d="M0 0 C1.98 0 3.96 0 6 0 C5.34 2.31 4.68 4.62 4 7 C4.99 6.34 5.98 5.68 7 5 C7.11828016 14.49620746 7.11828016 14.49620746 4.515625 17.99609375 C2.73594591 19.52098972 1.01412419 20.80320157 -1 22 C-1.59683594 22.37769531 -2.19367188 22.75539063 -2.80859375 23.14453125 C-5.8501322 24.33186979 -8.49910853 24.19001783 -11.75 24.125 C-12.92046875 24.10695313 -14.0909375 24.08890625 -15.296875 24.0703125 C-16.18890625 24.04710937 -17.0809375 24.02390625 -18 24 C-17.70867187 23.44570313 -17.41734375 22.89140625 -17.1171875 22.3203125 C-15.54595238 19.05697803 -14.40049267 15.65517672 -13.1953125 12.2421875 C-11.77427952 9.57658969 -10.74415335 9.113493 -8 8 C-6.321702 6.68133728 -4.65385233 5.34919532 -3 4 C-2.34 3.67 -1.68 3.34 -1 3 C-0.67 2.01 -0.34 1.02 0 0 Z " fill="#E4E4E4" transform="translate(133,235)"/>
<path d="M0 0 C18.25201768 -0.27608094 36.34208828 0.90053359 54.46142578 3.046875 C57.28940713 3.37963694 60.11906108 3.69415975 62.94921875 4.0078125 C64.78397978 4.22027219 66.61862043 4.43377466 68.453125 4.6484375 C69.2813678 4.73918549 70.1096106 4.82993347 70.96295166 4.9234314 C76.59404442 5.61023206 81.68724304 7.01970395 87 9 C87 9.66 87 10.32 87 11 C76.95118432 10.62349399 67.04080817 9.81637563 57.0625 8.5625 C40.76698016 6.53733424 24.39243595 5.7960407 8 5 C8 4.67 8 4.34 8 4 C14.435 3.505 14.435 3.505 21 3 C14.07 2.34 7.14 1.68 0 1 C0 0.67 0 0.34 0 0 Z " fill="#B8B8B8" transform="translate(404,218)"/>
<path d="M0 0 C-0.66 0.33 -1.32 0.66 -2 1 C-2.33 1.99 -2.66 2.98 -3 4 C-9.15114382 6.57648465 -15.36218383 6.23111932 -21.9375 6.125 C-23.00291016 6.11597656 -24.06832031 6.10695312 -25.16601562 6.09765625 C-27.77758034 6.07423414 -30.38866937 6.04143452 -33 6 C-33.33 5.34 -33.66 4.68 -34 4 C-39.94 3.67 -45.88 3.34 -52 3 C-52 2.67 -52 2.34 -52 2 C-47.00558845 1.70968559 -42.01088968 1.42514907 -37.01586914 1.14550781 C-35.32372592 1.05001332 -33.63166445 0.95305659 -31.93969727 0.85449219 C-21.27756432 0.23456396 -10.68165933 -0.14455022 0 0 Z " fill="#CCCCCC" transform="translate(304,217)"/>
<path d="M0 0 C8.28867464 -0.12537491 16.53369397 0.05109217 24.8125 0.4375 C26.11803833 0.49635376 26.11803833 0.49635376 27.44995117 0.55639648 C33.00044907 0.83115272 38.4823694 1.33609905 44 2 C43.67 3.32 43.34 4.64 43 6 C31.28188331 6.10902914 19.6777897 6.09908609 8 5 C8 4.67 8 4.34 8 4 C14.435 3.505 14.435 3.505 21 3 C14.07 2.34 7.14 1.68 0 1 C0 0.67 0 0.34 0 0 Z " fill="#B2B2B2" transform="translate(404,218)"/>
<path d="M0 0 C0.94101563 0.00322266 1.88203125 0.00644531 2.8515625 0.00976562 C3.83640625 0.01814453 4.82125 0.02652344 5.8359375 0.03515625 C6.82851563 0.03966797 7.82109375 0.04417969 8.84375 0.04882812 C11.2995391 0.0606348 13.75520854 0.07710225 16.2109375 0.09765625 C16.2109375 0.75765625 16.2109375 1.41765625 16.2109375 2.09765625 C18.8509375 2.42765625 21.4909375 2.75765625 24.2109375 3.09765625 C24.2109375 3.42765625 24.2109375 3.75765625 24.2109375 4.09765625 C14.3109375 4.09765625 4.4109375 4.09765625 -5.7890625 4.09765625 C-6.1190625 3.10765625 -6.4490625 2.11765625 -6.7890625 1.09765625 C-4.33631109 -0.12871945 -2.7384844 -0.01649689 0 0 Z " fill="#DDDDDD" transform="translate(254.7890625,219.90234375)"/>
<path d="M0 0 C9.44573505 -0.30470113 18.6421436 0.85830074 28 2 C28 2.33 28 2.66 28 3 C27.28972656 3.06058594 26.57945312 3.12117187 25.84765625 3.18359375 C24.92855469 3.26738281 24.00945312 3.35117188 23.0625 3.4375 C21.68771484 3.55931641 21.68771484 3.55931641 20.28515625 3.68359375 C18.03840268 3.76044976 18.03840268 3.76044976 17 5 C14.13311752 4.90903444 11.29699485 4.76232012 8.4375 4.5625 C7.63119141 4.51029297 6.82488281 4.45808594 5.99414062 4.40429688 C3.99578262 4.27422624 1.99784614 4.13770944 0 4 C0 2.68 0 1.36 0 0 Z " fill="#C6C6C6" transform="translate(447,221)"/>
<path d="M0 0 C0.89203125 0.00902344 1.7840625 0.01804688 2.703125 0.02734375 C3.37859375 0.03894531 4.0540625 0.05054688 4.75 0.0625 C4.42 1.7125 4.09 3.3625 3.75 5.0625 C0.45 5.3925 -2.85 5.7225 -6.25 6.0625 C-6.20875 7.17625 -6.1675 8.29 -6.125 9.4375 C-6.25 13.0625 -6.25 13.0625 -8.25 15.0625 C-8.25 12.7525 -8.25 10.4425 -8.25 8.0625 C-9.24 8.7225 -10.23 9.3825 -11.25 10.0625 C-10.59 7.0925 -9.93 4.1225 -9.25 1.0625 C-5.84112017 0.21028004 -3.44565369 -0.04533755 0 0 Z " fill="#B3B3B3" transform="translate(147.25,232.9375)"/>
<path d="M0 0 C9.9 0.33 19.8 0.66 30 1 C30.33 1.66 30.66 2.32 31 3 C24.88019467 4.40454548 19.28260706 5.23268915 13 5 C13.66 4.67 14.32 4.34 15 4 C15 3.34 15 2.68 15 2 C10.05 2 5.1 2 0 2 C0 1.34 0 0.68 0 0 Z " fill="#BFBFBF" transform="translate(445,166)"/>
<path d="M0 0 C0.66 0.33 1.32 0.66 2 1 C1.25 5.75 1.25 5.75 -1 8 C-1.33 7.34 -1.66 6.68 -2 6 C-2.70125 6.639375 -3.4025 7.27875 -4.125 7.9375 C-7.22841233 10.16386102 -9.24620139 10.65080943 -13 11 C-10 9 -10 9 -7.9375 8.625 C-5.83555983 8.19116616 -5.83555983 8.19116616 -5 6.1875 C-4.67 5.465625 -4.34 4.74375 -4 4 C-2.70529025 2.62913085 -1.37849103 1.28659163 0 0 Z " fill="#939393" transform="translate(316,192)"/>
<path d="M0 0 C2.86688248 0.09096556 5.70300515 0.23767988 8.5625 0.4375 C9.36880859 0.48970703 10.17511719 0.54191406 11.00585938 0.59570312 C13.00421738 0.72577376 15.00215386 0.86229056 17 1 C16.67 1.66 16.34 2.32 16 3 C13.91695462 3.05418326 11.83350232 3.09287551 9.75 3.125 C8.00976562 3.15980469 8.00976562 3.15980469 6.234375 3.1953125 C3.17213954 3.0103949 1.55797249 2.60823023 -1 1 C-0.67 0.67 -0.34 0.34 0 0 Z " fill="#FCFCFC" transform="translate(409,219)"/>
<path d="M0 0 C0.825 0.144375 1.65 0.28875 2.5 0.4375 C6.32686278 1.05253152 10.15216707 1.53560637 14 2 C12.65925162 6.02224515 10.2724102 7.39542862 7 10 C6.34 10.66 5.68 11.32 5 12 C5 10.68 5 9.36 5 8 C5.66 8 6.32 8 7 8 C7.66 6.68 8.32 5.36 9 4 C6.03 3.01 3.06 2.02 0 1 C0 0.67 0 0.34 0 0 Z " fill="#939393" transform="translate(117,235)"/>
<path d="M0 0 C3.96 0 7.92 0 12 0 C12 0.66 12 1.32 12 2 C9.03 2.66 6.06 3.32 3 4 C3 3.34 3 2.68 3 2 C2.01 2 1.02 2 0 2 C0 1.34 0 0.68 0 0 Z " fill="#FAFAFA" transform="translate(448,168)"/>
<path d="M0 0 C1.32 1.32 2.64 2.64 4 4 C3.67 4.66 3.34 5.32 3 6 C0.36 5.67 -2.28 5.34 -5 5 C-3.35 3.35 -1.7 1.7 0 0 Z " fill="#F4F6F5" transform="translate(183,190)"/>
<path d="M0 0 C0.8125 1.625 0.8125 1.625 1 4 C-0.46818136 6.24609835 -2.15852858 8.02378677 -4 10 C-4.66 9.67 -5.32 9.34 -6 9 C-5.67 7.68 -5.34 6.36 -5 5 C-4.34 5 -3.68 5 -3 5 C-2.5359375 4.0409375 -2.5359375 4.0409375 -2.0625 3.0625 C-1 1 -1 1 0 0 Z " fill="#C9C9C9" transform="translate(314,197)"/>
<path d="M0 0 C0.99 0.33 1.98 0.66 3 1 C-0.3 3.64 -3.6 6.28 -7 9 C-7.66 8.34 -8.32 7.68 -9 7 C-4.25 3 -4.25 3 -2 3 C-2 2.34 -2 1.68 -2 1 C-1.34 0.67 -0.68 0.34 0 0 Z " fill="#626362" transform="translate(388,154)"/>
<path d="M0 0 C0.66 0.33 1.32 0.66 2 1 C1.50628906 1.48210937 1.01257813 1.96421875 0.50390625 2.4609375 C-0.13675781 3.09257812 -0.77742187 3.72421875 -1.4375 4.375 C-2.07558594 5.00148437 -2.71367187 5.62796875 -3.37109375 6.2734375 C-5.07882176 7.91723061 -5.07882176 7.91723061 -6 10 C-6.66 9.67 -7.32 9.34 -8 9 C-7.23587913 7.87043002 -6.46340197 6.74651022 -5.6875 5.625 C-5.25824219 4.99851563 -4.82898438 4.37203125 -4.38671875 3.7265625 C-3 2 -3 2 0 0 Z " fill="#9E9E9E" transform="translate(216,175)"/>
<path d="M0 0 C0.99 0.33 1.98 0.66 3 1 C1.35 2.32 -0.3 3.64 -2 5 C-2.33 4.01 -2.66 3.02 -3 2 C-2.01 1.34 -1.02 0.68 0 0 Z " fill="#DEDEDE" transform="translate(398,199)"/>
</svg>
